**ABCDEFGHIJKLMNOPQRSTUVWXYZabcdefghijklmnopqrstuvwxyz**************************
**PARASOLID !"#$%&'()*+,-./:;<=>?@[\]^_`{|}~0123456789**************************
**PART1;
MC=AMD64;
MC_MODEL=Intel64 Family 6 Model 167 Stepping 1, GenuineIntel;
MC_ID=unknown;
OS=Windows_NT;
OS_RELEASE=unknown;
FRU=Parasolid Version 30.0, build 226,  7-26-2017;
APPL=SOLIDWORKS 2018-2017278;
SITE=;
USER=unknown;
FORMAT=text;
GUISE=transmit;
KEY=Seven_dof_2;
FILE=Seven_dof_2.x_t;
DATE=Sat Dec 11 15:29:07 2021;
**PART2;
SCH=SCH_3000226_30000;
USFLD_SIZE=0;
**PART3;
**END_OF_HEADER*****************************************************************
T51 : TRANSMIT FILE created by modeller version 300022623 SCH_3000226_30000_1300
6205 0 10 19 CCCCCCCI4 mesh1006 0 I8 polyline1008 0 CCCCCCCCCCZ1 17 2 3 0 0 0 0
 0 0 0 1e3 1e-8 0 0 0 1 0 1 4 81 255 1 2 17 5 1 0 0 0 0 0 70 11 CI9 list_type0 0
 1 uI10 notransmit0 0 1 lCCCDCCDI12 finger_index0 0 1 dI12 finger_block1012 0 CZ
3 0 4 T1 0 0 1 20 1 6 6 11 255 4 15 0 1 7 8 1 9 0 0 0 12 33 CCCCCCI4 mesh1006 0
 I8 polyline1008 0 CCCCCCCDI5 owner1040 0 CCCCCCI13 boundary_mesh1006 0 I17 boun
dary_polyline1008 0 CCCA16 index_map_offset0 0 1 dA9 index_map82 0 A17 node_id_i
ndex_map82 0 A20 schema_embedding_map82 0 A5 child12 0 A14 lowest_node_id0 0 1 d
Z7 157 10 11 0 0 0 0 0 0 1e3 1e-8 4 12 0 1 0 1 1 13 14 15 16 0 0 17 18 19 0 0 0
 0 0 0 100 255 8 16 4 0 0 -.999663154278925 -.000303255673426561 .02595160906583
22 -.000609597661309644 .999930224122039 -.01179725722106536 -.02594622068434195
 -.0118091034056438 -.99959358676862 -.000167414763710386 1.134141785882094 -.01
467482928354494 1 3 ?11 9 13 0 1 12 20 1 21 4 0 0 12 12 245 22 23 0 0 0 0 0 0 1e
3 1e-8 9 24 7 1 0 1 1 25 26 27 28 0 0 29 30 31 0 0 0 0 0 0 100 20 14 9 0 0 .5637
68287186307 -.000303255673426553 -.825932943040181 .00992448244547357 .999930224
122039 .00640714721526983 .8258733698402 -.0118091034056438 .563731959414709 -.0
001977403310530475 1.2341348082943 -.0158557396241093 1 3 ?11 21 11 0 1 24 32 1
 33 9 0 0 12 24 157 34 35 0 0 0 0 0 0 1e3 1e-8 21 36 12 1 0 1 1 37 38 39 40 0 0
 41 42 43 0 0 0 0 0 0 100 32 12 21 0 0 -.999663154278925 -.000303255673426561 .0
259516090658321 -.000609597661309643 .999930224122039 -.01179725722106536 -.0259
462206843419 -.0118091034056438 -.99959358676862 -.000103882700127521 .924656403
928528 -.01220082212006258 1 3 ?11 33 9 0 1 36 44 1 45 21 0 0 12 36 165 46 47 0
 0 0 0 0 0 1e3 1e-8 33 48 24 1 0 1 1 49 50 51 52 0 0 53 54 55 0 0 0 0 0 0 100 44
 10 33 0 0 .999663154278926 -.0003032556734265615 -.0259516090658322 .0006095976
61309645 .999930224122039 .01179725722106536 .02594622068434195 -.01180910340564
38 .99959358676862 -311013385051773e-19 .684673150139239 -.00936663730270807 1 3
 ?11 45 7 0 1 48 56 1 57 33 0 0 12 48 204 58 59 0 0 0 0 0 0 1e3 1e-8 45 60 36 1
 0 1 1 61 62 63 64 0 0 65 66 67 0 0 0 0 0 0 100 56 8 45 0 0 .999663154278926 -69
0788502649873e-19 -.02595328890953315 .000609597661309562 .999783069723043 .0208
19267178753 .02594622068434195 -.0208280753619105 .99944633918431 -1347037580169
6e-18 .4299576985959935 -.004061474695572545 1 3 ?11 57 5 0 1 60 68 1 69 45 0 0
 12 60 139 70 71 0 0 0 0 0 0 1e3 1e-8 57 72 48 1 0 1 1 73 74 75 0 0 0 76 77 0 0
 0 0 0 0 0 100 68 6 57 0 0 .999994500055059 -690788502649944e-19 .00331588415748
2615 -965114056787993e-33 .999783069723043 .02082818991580825 -.0033166036292264
6 -.02082807536191045 .999777570971206 -205625718275454e-31 .235 867361737988404
e-33 1 3 ?11 69 3 0 1 72 78 1 79 57 0 0 12 72 157 80 81 0 0 0 0 0 0 1e3 1e-8 69
 82 60 1 0 1 1 83 84 85 86 0 0 87 88 89 0 0 0 0 0 0 100 78 4 69 0 0 .99999450005
5059 -194887653535776e-38 .00331660362922646 1949155966484245e-39 1 -77891503868
651e-39 -.00331660362922646 84384658038868e-39 .999994500055059 -194887653535776
e-39 .1 84384658038868e-40 1 3 ?11 79 1 0 1 82 90 1 0 69 0 0 12 82 80 91 92 0 0
 0 0 0 0 1e3 1e-8 79 93 72 1 0 1 1 94 95 96 0 0 0 97 98 0 0 0 0 0 0 0 100 90 2 7
9 0 0 1 0 0 0 1 0 0 0 1 0 0 0 1 0 ?81 1 91 80 5 82 99 0 0 0 100 70 92 0 4 T82 0
 0 4 20 1 101 101 13 255 94 29 0 82 0 102 0 0 103 0 51 255 95 28 0 102 104 0 0 -
0 .1 0 0 -1 0 .05 0 0 -1 31 255 96 23 0 105 106 0 0 +0 0 0 0 1 0 0 0 1 .05 19 8
 CCCCCCCA5 owner12 0 Z97 7 0 82 103 0 107 V0 16 255 98 4 0 ?108 0 105 106 0 0 82
 17 255 108 0 109 108 108 0 110 98 0 0 +16 105 18 0 ?111 98 0 96 0 0 82 31 106 5
 0 98 0 96 0 +0 .1 0 0 1 0 0 0 1 .05 17 111 0 112 111 111 0 113 105 0 0 +15 255
 112 26 0 111 102 0 17 113 0 114 113 113 0 111 105 0 0 -15 114 17 0 113 115 0 14
 255 115 16 116 ?0 117 114 94 104 -0 0 0 117 107 81 1 116 79 118 115 119 0 120 0
 121 14 117 1 120 ?115 102 109 94 122 +0 0 115 102 107 50 255 104 22 0 115 122 9
5 0 +0 0 0 0 1 0 0 0 1 13 107 8 0 0 0 0 0 0 97 102 14 102 25 123 ?117 0 124 94 9
5 -0 0 117 0 107 81 1 123 77 118 102 125 0 0 120 126 15 124 24 0 110 102 112 17
 110 0 124 110 110 0 108 98 0 0 -80 255 1 118 0 127 8001 0 0 0 0 3 5 0 0 0 FFFFT
FTFFFFFFF2 81 1 125 75 128 102 0 123 129 0 130 81 1 120 78 118 117 129 0 123 116
 131 83 255 3 126 .792156862745098 .819607843137255 .933333333333333 81 1 129 73
 128 117 0 120 119 125 132 83 3 131 .792156862745098 .819607843137255 .933333333
333333 80 1 128 133 134 9000 1 1 1 1 1 1 1 1 0 FFFFTFTFFFFFFF1 81 1 119 71 128 1
15 0 116 0 129 135 82 255 1 132 256835690 82 1 135 258539626 79 255 14 134 SWEnt
Unchanged82 1 130 258801770 79 15 127 SDL/TYSA_COLOUR50 122 2 0 117 0 104 0 +0 .
1 0 0 1 0 0 0 1 15 109 3 0 108 117 0 83 3 121 .792156862745098 .819607843137255
 .933333333333333 19 103 30 0 82 0 97 94 S0 74 4 CI16 index_map_offset0 0 1 dCCZ
20 101 4 0 0 125 99 116 91 0 0 0 0 0 0 0 0 0 0 0 0 0 0 0 0 81 2 99 56 136 82 0 9
1 0 0 137 0 80 2 136 138 139 8004 0 0 0 0 3 5 0 0 0 FFTFFFFFFFFFFF2 3 83 1 137 1
 79 16 139 SDL/TYSA_DENSITY80 1 5 140 141 8017 0 0 0 0 0 0 0 0 0 TTTTTTTTTTTTTF3
 84 255 7 100 model_079 13 141 SDL/TYSA_NAME81 1 80 157 5 72 142 0 0 0 143 70 81
 0 4 T72 0 0 4 20 1 144 144 13 83 29 0 72 0 145 0 0 146 0 51 84 28 0 145 147 0 0
 -0 .135 0 0 -1 0 .05 0 0 -1 31 85 23 0 88 148 0 0 +0 0 0 0 1 0 0 0 1 .05 29 255
 86 56 0 89 149 0 0 .135 -.05 19 87 7 0 72 146 0 150 V0 16 88 18 0 ?151 0 152 85
 0 0 72 18 255 89 54 0 153 0 154 86 ?72 17 153 0 155 156 156 89 157 158 0 159 -1
8 154 75 0 156 89 0 149 ?72 17 156 0 155 153 153 154 159 152 0 157 -29 149 102 0
 154 0 86 0 .135 .05 15 155 62 0 156 145 0 17 159 0 160 157 157 89 156 152 0 0 +
16 152 70 0 ?159 88 158 148 0 0 72 17 157 0 160 159 159 154 153 158 0 0 +15 160
 81 0 157 161 0 16 158 69 0 ?157 152 162 163 0 0 72 16 162 71 0 ?164 158 165 166
 0 0 72 32 255 163 98 0 158 167 148 0 -0 .135 0 .707106781186548 -.7071067811865
48 0 -.707106781186548 -.707106781186548 0 .0707106781186548 .05 31 167 99 0 165
 166 163 0 +-.06 .135 0 1 0 0 0 0 -1 .05 32 148 97 0 152 163 85 0 -0 .135 0 -.70
7106781186548 -.707106781186548 0 .707106781186548 -.707106781186548 0 .07071067
81186548 .05 16 165 66 0 ?168 162 0 167 0 0 72 31 166 100 0 162 0 167 0 +.06 .13
5 0 1 0 0 0 0 -1 .05 17 168 0 169 168 168 0 170 165 0 0 +15 169 80 0 168 161 160
 17 170 0 171 170 170 0 168 165 0 0 -15 171 91 0 170 172 0 14 172 89 173 ?0 174
 171 83 175 -0 0 0 174 150 81 1 173 156 118 172 176 0 177 0 178 14 174 86 177 ?1
72 161 179 83 180 +0 0 172 161 150 50 175 95 0 172 180 181 0 +-.06 .135 0 1 0 0
 0 0 -1 13 150 8 0 0 0 0 0 0 87 145 14 145 63 182 ?183 0 184 83 84 -0 0 183 0 15
0 81 1 182 152 118 145 185 0 0 186 187 14 183 16 186 ?161 145 188 83 147 -0 0 16
1 145 150 15 184 26 0 151 145 155 17 151 0 184 151 151 0 189 88 0 0 +17 189 0 18
8 189 189 0 151 88 0 0 -15 188 17 0 189 183 0 81 1 186 153 118 183 190 0 182 191
 192 14 161 76 191 ?174 183 193 83 181 -0 0 174 183 150 50 147 22 0 183 181 84 0
 +0 0 0 0 1 0 0 0 1 51 181 94 0 161 175 147 0 -.06 .135 0 -1 0 0 .05 0 0 1 81 1
 191 154 118 161 194 0 186 177 195 15 193 79 0 196 161 169 17 196 0 193 196 196
 0 164 162 0 0 -17 164 0 179 164 164 0 196 162 0 0 +15 179 88 0 164 174 0 81 1 1
94 150 128 161 0 191 190 0 197 81 1 177 155 118 174 198 0 191 173 199 83 3 195 .
792156862745098 .819607843137255 .933333333333333 81 1 198 144 128 174 0 177 176
 185 200 83 3 199 .792156862745098 .819607843137255 .933333333333333 81 1 176 14
2 128 172 0 173 0 198 201 81 1 185 146 128 145 0 182 198 190 202 82 1 200 -46150
4401 81 1 190 148 128 183 0 186 185 194 203 82 1 202 -455278481 82 1 203 4026532
88 82 1 201 -459800465 82 1 197 -456130449 83 3 192 .792156862745098 .8196078431
37255 .933333333333333 83 3 187 .792156862745098 .819607843137255 .9333333333333
33 50 180 96 0 174 0 175 0 +.06 .135 0 1 0 0 0 0 -1 83 3 178 .792156862745098 .8
19607843137255 .933333333333333 19 146 30 0 72 0 87 83 S0 74 20 144 4 0 0 194 14
2 173 80 0 0 0 0 0 0 0 0 0 0 0 0 0 0 0 0 81 2 142 121 136 72 0 80 0 0 204 0 83 1
 204 1 84 7 143 model_181 1 70 139 5 60 205 0 0 0 206 70 71 0 4 T60 0 0 4 20 1 2
07 207 13 73 29 0 60 0 208 0 0 209 0 51 74 28 0 208 210 0 211 -.06 0 0 -1 0 0 .0
5 0 0 1 38 12 CCCCCCCCCCCA17 intersection_data204 0 Z75 55 0 77 212 0 0 +74 213
 214 215 215 216 19 76 7 0 60 209 0 217 V0 16 77 52 0 ?218 0 219 75 0 0 60 17 21
8 0 220 218 218 0 221 77 0 0 +16 219 4 0 ?222 77 223 224 0 0 60 17 222 0 225 222
 222 0 226 219 0 0 +16 223 18 0 ?227 219 228 212 0 0 60 31 224 5 0 219 229 212 0
 +.06 0 0 1 0 0 0 0 -1 .05 31 229 88 0 228 0 224 0 +0 .195 0 0 1 0 0 0 1 .04 31
 212 23 0 223 224 75 0 +-.06 0 0 1 0 0 0 0 -1 .05 16 228 63 0 ?230 223 0 229 0 0
 60 17 230 0 231 230 230 0 232 228 0 0 +15 231 78 0 230 233 0 17 232 0 234 232 2
32 0 230 228 0 0 -15 234 69 0 232 235 220 14 235 66 236 ?233 237 234 73 213 -0 0
 233 237 217 15 220 70 0 218 235 0 81 1 236 137 118 235 238 0 239 240 241 14 233
 76 240 ?0 235 231 73 242 +0 0 0 235 217 14 237 16 239 ?235 243 244 73 210 -0 0
 235 243 217 51 213 84 0 235 242 245 246 -0 .195 0 0 -1 0 .04 0 0 -1 13 217 8 0
 0 0 0 0 0 76 208 14 208 56 247 ?243 0 248 73 74 -0 0 243 0 217 81 1 247 134 118
 208 249 0 0 250 251 14 243 1 250 ?237 208 225 73 245 +0 0 237 208 217 15 248 24
 0 226 208 252 17 226 0 248 226 226 0 222 219 0 0 -15 252 26 0 227 208 253 17 22
7 0 252 227 227 0 254 223 0 0 +15 253 54 0 221 208 0 17 221 0 253 221 221 0 218
 77 0 0 -17 254 0 244 254 254 0 227 223 0 0 -15 244 17 0 254 237 0 81 1 250 135
 118 243 255 0 247 239 256 15 225 3 0 222 243 0 50 245 2 0 243 213 210 0 +.06 0
 0 1 0 0 0 0 -1 50 210 22 0 237 245 74 0 +-.06 0 0 1 0 0 0 0 -1 81 1 255 132 128
 243 0 250 249 0 257 81 1 239 136 118 237 258 0 250 236 259 83 3 256 .7921568627
45098 .819607843137255 .933333333333333 81 1 258 128 128 237 0 239 260 249 261 8
3 3 259 .792156862745098 .819607843137255 .933333333333333 81 1 260 126 128 233
 0 240 238 258 262 81 1 249 130 128 208 0 247 258 255 263 82 1 261 1222115434 82
 1 263 -1296564111 81 1 240 138 118 233 260 0 236 0 264 81 1 238 124 128 235 0 2
36 0 260 265 82 1 262 -1300889487 82 1 265 -1296105359 83 3 264 .792156862745098
 .819607843137255 .933333333333333 82 1 257 1220411498 83 3 251 .792156862745098
 .819607843137255 .933333333333333 50 242 86 0 233 0 213 0 +0 .195 0 0 1 0 0 0 1
 141 255 246 75 246 246 213 83 3 241 .792156862745098 .819607843137255 .93333333
3333333 19 209 30 0 60 0 76 73 S0 40 255 24 214 0 1 24 .00335670445453029 .39337
620575062 ??0 .03 -.04 -.00884043486842337 .0312754422616665 -.03901085376324345
 -.0194147215387556 .03573417709179015 -.03497239750964435 -.030853305777317 .04
30340153528418 -.0254572882022296 -.0371729408300955 .0477684784136755 -.0147706
6247810902 -.03978376562046185 .0498271814067768 -.00415355186029469 -.039384452
7833343 .0495089398093182 .00699034183408148 -.03630196258193655 .04709386889288
58 .0167978425013357 -.03051136522188525 .04278952450896445 .0258661282819198 -.
0209933801029487 .03661587098714005 .034048171637448 -.01030134806820438 .031719
35957774525 .03865077266986655 -.001776395611451835 .0300525470030144 .039960535
7650722 .00699787598437397 .0308053610316886 .03938311480453675 .016987385658327
7 .0344756620169179 .03621365389594435 .02882753442898475 .04160560949264295 .02
77303670863856 .0371018867547574 .0477132057271658 .01494824401851792 .039760851
5974679 .0498088879594382 .00436745695389608 .0394239252435042 .0495403459980389
 -.0067641790628718 .03639538419344145 .0471659198000867 -.01659445718942905 .03
06715998132641 .0429039279682528 -.0256759218898753 .02125032602536325 .03676379
1373908 -.0338883998414763 .01046172062826592 .03177180508727645 -.0386076728319
1405 .001758800708286155 .030051512107238 -.0399613140433161 851417369341506e-33
 .03 -.04 41 3 CI8 term_use0 0 1 cCZ1 215 H?851417369341506e-33 .03 -.04 204 2 1
7 INTERSECTION_DATA17 Intersection data7 uv_type0 0 1 u6 values0 1 1 fT96 216 4
 2.49809154479651 .06 0 .165 2.465809106839275 .0688404348684234 6.0603344551616
4 .1637245577383335 2.345421091623035 .0794147215387556 5.77640124129121 .159265
82290821 2.104988312876995 .090853305777317 5.40225287430618 .151965984647158 1.
87068437121844 .0971729408300955 5.09060866007664 .1472315215863244 1.6539632046
50175 .0997837656204618 4.81641529508136 .1451728185932232 1.430529994004236 .09
93844527833343 4.53672844544195 .1454910601906818 1.2281753839103 .0963019625819
365 4.279003093143755 .1479061311071142 1.027076954921614 .0905113652218853 4.00
9200350130935 .1522104754910355 .82171890101022 .0809933801029487 3.694113327642
77 .15838412901286 .687215511334156 .0703013480682044 3.402061592740995 .1632806
40422255 .644815432039052 .0617763956114518 3.186017154661815 .1649474529969855
 .663790899752575 .053002124015626 2.96574081782363 .1641946389683115 .760816771
076158 .0430126143416723 2.70297912754382 .160524337983082 .982905316313875 .031
17246557101525 2.336797912260535 .153394390507357 1.267188588123112 .02289811324
52426 1.95379773962085 .1472867942728342 1.48333572747245 .0202391484025321 1.68
020087035169 .145191112040562 1.70649599610434 .0205760747564958 1.4008753377230
44 .145459654001961 1.909101855883365 .02360461580655855 1.143005823437698 .1478
340801999134 2.11007647783661 .0293284001867359 .873825302346126 .15209607203174
7 2.315519097942275 .03874967397463675 .560084926756952 .158236208626092 2.45301
947834887 .0495382793717341 .264620519698194 .1632281949127235 2.49680311924402
 .0582411992917138 .04398419837823715 .164948487892762 2.49809154479651 .06 2128
543423353765e-32 .165 141 211 75 211 211 74 74 20 207 4 0 0 255 205 240 70 0 0 0
 0 0 0 0 0 0 0 0 0 0 0 0 0 81 2 205 104 136 60 0 70 0 0 266 0 83 1 266 1 84 7 20
6 model_281 1 58 204 5 48 267 0 0 0 268 70 59 0 4 T48 0 0 4 20 1 269 269 13 61 2
9 0 48 0 270 0 0 271 0 51 62 28 0 270 272 0 273 -0 .2545 0 0 -1 0 .04 0 0 -1 30
 255 63 65 0 66 274 0 0 -.04 .2545 -.01 -1 0 0 29 64 56 0 67 275 0 .038729833462
07415 .2545 -.01 19 65 7 0 48 271 0 276 V0 16 66 63 0 ?277 0 278 63 0 0 48 18 67
 54 0 279 0 280 64 ?48 17 279 0 281 282 283 67 284 285 0 277 +18 280 102 0 282 6
7 286 275 ?48 17 282 0 281 287 279 280 277 66 0 288 -18 286 100 0 289 280 290 29
1 ?48 29 275 130 0 280 291 64 -.03872983346207415 .2545 -.01 29 291 132 0 286 29
2 275 .04 .228042486889354 0 29 292 134 0 290 0 291 -.04 .228042486889354 0 18 2
90 99 0 287 286 0 292 ?48 17 287 0 281 293 282 290 288 294 0 293 +15 281 108 0 2
82 295 0 17 293 0 281 289 287 290 296 297 0 296 +17 288 0 298 299 300 280 287 29
4 0 301 -16 294 87 0 ?287 302 303 304 303 285 48 16 302 18 0 ?305 278 294 274 0
 0 48 16 303 91 0 ?289 294 285 304 285 294 48 38 304 124 0 285 306 307 0 +62 308
 309 310 311 312 16 285 92 0 ?279 303 313 304 294 303 48 16 313 95 0 ?314 285 29
7 315 0 0 48 17 314 0 316 314 314 286 283 313 0 283 +16 297 88 0 ?293 313 0 306
 0 0 48 31 315 128 0 313 0 306 0 +.04 .2545 .03 1 0 0 0 0 -1 .04 31 306 127 0 29
7 315 304 0 +-.04 .2545 .03 1 0 0 0 0 -1 .04 15 316 137 0 314 317 0 17 283 0 281
 279 289 286 314 313 0 284 -17 289 0 281 283 293 286 300 303 0 314 +17 284 0 298
 300 299 286 279 285 0 0 -15 298 83 0 288 270 0 17 300 0 298 288 284 290 289 303
 0 0 -17 299 0 298 284 288 67 301 278 0 0 -17 301 0 318 277 277 280 299 278 0 0
 +16 278 55 0 ?301 66 302 307 0 0 48 31 307 5 0 278 304 274 0 +0 .2545 0 0 1 0 0
 0 1 .04 31 274 23 0 302 307 63 0 +0 0 0 0 1 0 0 0 1 .04 15 318 3 0 301 319 0 17
 277 0 318 301 301 67 282 66 0 299 +14 319 66 320 ?321 270 318 61 322 +0 0 321 2
70 276 81 1 320 199 118 319 323 0 324 325 326 14 321 16 325 ?295 319 327 61 272
 -0 0 295 319 276 14 270 84 324 ?319 0 328 61 62 -0 0 319 0 276 50 322 2 0 319 3
08 272 0 +0 .2545 0 0 1 0 0 0 1 13 276 8 0 0 0 0 0 0 65 270 51 308 121 0 295 329
 322 330 -.04 .2545 .03 -1 0 0 .04 0 0 1 50 272 22 0 321 322 62 0 +0 0 0 0 1 0 0
 0 1 14 295 105 331 ?317 321 281 61 308 -0 0 317 321 276 50 329 122 0 332 333 30
8 0 +-.04 .2545 .03 1 0 0 0 0 -1 141 330 304 330 330 308 14 332 116 334 ?0 317 3
35 61 329 -0 0 0 317 276 50 333 123 0 317 0 329 0 +.04 .2545 .03 1 0 0 0 0 -1 14
 317 113 336 ?332 295 316 61 333 +0 0 332 295 276 81 1 336 202 118 317 337 0 331
 334 338 81 1 337 196 128 317 0 336 339 0 340 81 1 331 201 118 295 341 0 325 336
 342 81 1 334 203 118 332 339 0 336 0 343 83 3 338 .792156862745098 .81960784313
7255 .933333333333333 81 1 339 194 128 332 0 334 341 337 344 83 3 343 .792156862
745098 .819607843137255 .933333333333333 81 1 341 192 128 295 0 331 345 339 346
 82 1 344 115081334 81 1 345 190 128 270 0 324 347 341 348 82 1 346 121307254 81
 1 324 198 118 270 345 0 0 320 349 81 1 347 188 128 321 0 325 323 345 350 82 1 3
48 123207798 81 1 325 200 118 321 347 0 320 331 351 81 1 323 186 128 319 0 320 0
 347 352 82 1 350 97648756 82 1 352 118751350 83 3 351 .792156862745098 .8196078
43137255 .933333333333333 83 3 349 .792156862745098 .819607843137255 .9333333333
33333 83 3 342 .792156862745098 .819607843137255 .933333333333333 82 1 340 11337
7398 15 335 136 0 296 332 0 17 296 0 335 296 296 290 293 297 0 300 -15 328 26 0
 305 270 298 17 305 0 328 305 305 0 353 302 0 0 +17 353 0 327 353 353 0 305 302
 0 0 -15 327 17 0 353 321 0 83 3 326 .792156862745098 .819607843137255 .93333333
3333333 40 17 309 0 1 17 .002685471179605325 .391585994973894 ??-.03872983346207
415 .2545 -.01 -.03923650390918555 .241353697998757 -.00777796637846079 -.039976
45985457835 .229684856186105 -.00137209966667387 -.0390784613810538 .22074613716
5023 .0085366185395323 -.03543375846503455 .216171015027056 .01855933083496255 -
.02968661872868865 .214627510753659 .02680866778595075 -.02149924286801295 .2146
743876858385 .0337310325383347 -.01016450979763082 .2154546890544125 .0386869841
235249 .003241317308249325 .215736440349228 .03986845698177 .01593421277754165 .
215063291575743 .0366892472416651 .02708613606752975 .2145040092488495 .02943367
51516229 .0341050295549057 .215548670226811 .02090088416931225 .0383805370056643
 .219158005557125 .0112665158392838 .0398830436011595 .224935604912321 .00305660
483347321 .03981508889016445 .233175389609198 -.00384170491687004 .0390319640286
2985 .244565781028059 -.00874675848916302 .03872983346207415 .2545 -.01 41 1 310
 L?-.03872983346207415 .2545 -.01 41 1 311 L?.03872983346207415 .2545 -.01 204 6
8 312 4 4.96506923552677 0 3.141592653589795 .0787298334620742 4.90808484001339
 .013146302001243 3.4764744660332 .0792365039091856 4.74669820268298 .0248151438
138948 3.810817980671335 .0799764598545783 4.49731934133782 .03375386283497715 4
.14600459757424 .0790784613810538 4.229902466560615 .03832898497294395 4.4223216
64881115 .0754337584650346 3.977888255215775 .0398724892463409 4.63252078987426
 .0696866187286886 3.709039834348475 .03982561231416145 4.80580058194744 .061499
242868013 3.39852287805749 .03904531094558765 4.931308034119 .0501645097976308 3
.060470776234215 .03876355965077195 4.9616742908327 .0367586826917507 2.73186959
993785 .03943670842425715 4.88040960941196 .02406578722245835 2.397705430954825
 .03999599075115045 4.6982303861277 .01291386393247026 2.12060264920399 .0389513
297731891 4.482902090194505 .00589497044509428 1.85632305797327 .035341994442874
85 4.22498120561697 .0016194629943357 1.64728601182453 .02956439508767905 3.9733
4058118615 .0001169563988405176 1.47460543510483 .02132461039080185 3.7038711200
118 .0001849111098355535 1.35034611424441 .00993421897194105 3.39257482133294 .0
0096803597137015 1.318116071652818 555111512312578e-31 3.141592653589795 .001270
166537925832 19 271 30 0 48 0 65 61 S0 141 273 304 273 273 62 74 20 269 4 0 0 33
7 267 334 58 0 0 0 0 0 0 0 0 0 0 0 0 0 0 0 0 81 2 267 159 136 48 0 58 0 0 354 0
 83 1 354 1 84 7 268 model_381 1 46 165 5 36 355 0 0 0 356 70 47 0 4 T36 0 0 4 2
0 1 357 357 13 49 29 0 36 0 358 0 0 359 0 51 50 28 0 358 360 0 361 -0 .24 0 0 -1
 0 .03 0 0 -1 30 51 59 0 54 362 0 0 -.04 0 -.01 -1 0 0 29 52 56 0 55 363 0 -.028
2842712474619 0 -.01 19 53 7 0 36 359 0 364 V0 16 54 57 0 ?365 0 366 51 0 0 36 1
8 55 54 0 367 0 368 52 ?36 17 367 0 369 370 370 55 365 54 0 371 -18 368 76 0 370
 55 0 363 ?36 17 370 0 369 367 367 368 371 372 0 373 -29 363 101 0 368 0 52 .028
2842712474619 0 -.01 15 369 58 0 367 374 0 17 371 0 375 373 373 55 370 372 0 376
 +16 372 18 0 ?371 366 377 362 0 0 36 17 373 0 375 371 371 368 376 377 0 365 -15
 375 63 0 373 358 0 17 376 0 378 365 365 55 373 377 0 0 +16 377 71 0 ?376 372 37
9 380 0 0 36 17 365 0 378 376 376 368 367 54 0 0 +15 378 82 0 365 381 0 14 381 7
7 382 ?383 384 385 49 386 -0 0 383 384 364 81 1 382 162 118 381 387 0 388 389 39
0 14 383 87 389 ?391 381 392 49 393 +0 0 391 381 364 14 384 1 388 ?381 374 394 4
9 395 +0 0 381 374 364 15 385 80 0 396 381 397 51 386 95 0 381 398 395 399 -.04
 0 .03 -1 0 0 .04 0 0 1 13 364 8 0 0 0 0 0 0 53 358 14 358 64 400 ?374 0 401 49
 50 -0 0 374 0 364 81 1 400 159 118 358 402 0 0 403 404 14 374 60 403 ?384 358 3
69 49 360 -0 0 384 358 364 15 401 24 0 405 358 375 17 405 0 401 405 405 0 406 36
6 0 0 -17 406 0 394 406 406 0 405 366 0 0 +16 366 4 0 ?406 54 372 407 0 0 36 31
 407 5 0 366 380 362 0 +0 .24 0 0 1 0 0 0 1 .03 38 380 98 0 377 408 407 0 +50 38
6 409 410 411 412 31 362 23 0 372 407 51 0 +0 0 0 0 1 0 0 0 1 .03 31 408 99 0 41
3 414 380 0 +-.04 0 .03 1 0 0 0 0 -1 .04 40 16 409 0 1 16 .00304535169440252 .39
4973410861984 ??.0282842712474619 0 -.01 .02915235061069175 .015 -.0070809924354
7832 .02999872929381375 .02614109259366925 -.0002761172875454855 .02910836395235
485 .03290711860633385 .00725969338314286 .0255378427763362 .0373726731976909 .0
1574225480454225 .01998611580720835 .03926614636373535 .0223730904199857 .012630
99554277642 .0399026749780607 .0272113570333852 .00341016886283913 .039999527357
0815 .02980554895194725 -.00660328327012239 .039993232927995 .0292642555014564 -
.0159158384930034 .03973808391160985 .02543002330051295 -.02330551314502375 .038
42629601234425 .0188905547045905 -.02776016053597055 .0353988885759203 .01137424
665712604 -.0296810011667414 .0307043700022292 .00436327511622815 -.029931533305
8474 .0239657433873651 -.00202566383216693 -.02907380268909415 .0141941022909066
 -.00739689104932762 -.0282842712474619 998582582762982e-33 -.01 41 1 410 L?.028
2842712474619 0 -.01 41 1 411 L?-.0282842712474619 998582582762982e-33 -.01 204
 64 412 4 1.230959417340774 .24 3.141592653589795 .0117157287525381 1.3325147761
2288 .225 2.757195879094155 .01084764938930826 1.561592287258235 .21385890740633
05 2.42935734381966 .01000127070618624 1.815212384693455 .207092881393666 2.1754
8704656327 .01089163604764514 2.123208128458095 .202627326802309 1.9352550576953
8 .01446215722366382 2.41248574505681 .2007338536362645 1.762643740250495 .02001
388419279165 2.70700856783544 .2000973250219395 1.640568998701595 .0273690044572
236 3.02767412300114 .2000004726429185 1.57565762214337 .03658983113716085 3.363
51931653826 .200006767072005 1.589190976586185 .0466032832701224 3.7008159241524
35 .20026191608839 1.68529576391752 .0559158384930034 4.031241117012625 .2015737
039876555 1.852233048823205 .0633055131450237 4.323520569143105 .204601111424079
5 2.055158317287335 .0677601605359706 4.56642876284945 .209295629997771 2.266490
07608558 .0696810011667414 4.77996252191584 .216034256612635 2.499161634735935 .
0699315333058474 4.96152117107134 .2258058977090935 2.778836296905925 .069073802
6890941 5.05222588983881 .24 3.141592653589795 .0682842712474619 16 413 67 0 ?41
5 379 0 408 0 0 36 31 414 100 0 379 0 408 0 +.04 0 .03 1 0 0 0 0 -1 .04 16 379 7
2 0 ?416 377 413 414 0 0 36 17 416 0 392 416 416 0 396 379 0 0 +15 392 89 0 416
 383 0 17 396 0 385 396 396 0 416 379 0 0 -17 415 0 397 415 415 0 417 413 0 0 +1
5 397 81 0 415 381 378 17 417 0 418 417 417 0 415 413 0 0 -15 418 92 0 417 391 0
 14 391 90 419 ?0 383 418 49 398 -0 0 0 383 364 81 1 419 164 118 391 420 0 389 0
 421 50 398 96 0 391 393 386 0 +-.04 0 .03 1 0 0 0 0 -1 50 393 97 0 383 0 398 0
 +.04 0 .03 1 0 0 0 0 -1 81 1 420 157 128 391 0 419 422 0 423 81 1 389 163 118 3
83 424 0 382 419 425 83 3 421 .792156862745098 .819607843137255 .933333333333333
 81 1 424 149 128 383 0 389 387 426 427 83 3 425 .792156862745098 .8196078431372
55 .933333333333333 81 1 387 147 128 381 0 382 0 424 428 81 1 426 151 128 384 0
 388 424 402 429 82 1 427 -997851020 81 1 388 161 118 384 426 0 403 382 430 81 1
 402 153 128 358 0 400 426 422 431 82 1 429 -1102249873 81 1 422 155 128 374 0 4
03 402 420 432 82 1 431 -991690636 81 1 403 160 118 374 422 0 400 388 433 82 1 4
32 -993132428 83 3 433 .792156862745098 .819607843137255 .933333333333333 83 3 4
30 .792156862745098 .819607843137255 .933333333333333 82 1 428 -992149388 82 1 4
23 -996147084 15 394 3 0 406 384 0 50 360 22 0 374 395 50 0 +0 0 0 0 1 0 0 0 1 5
0 395 2 0 384 386 360 0 +0 .24 0 0 1 0 0 0 1 83 3 404 .792156862745098 .81960784
3137255 .933333333333333 141 399 380 399 399 386 83 3 390 .792156862745098 .8196
07843137255 .933333333333333 19 359 30 0 36 0 53 49 S0 141 361 380 361 361 50 74
 20 357 4 0 0 420 355 419 46 0 0 0 0 0 0 0 0 0 0 0 0 0 0 0 0 81 2 355 123 136 36
 0 46 0 0 434 0 83 1 434 1 84 7 356 model_481 1 34 157 5 24 435 0 0 0 436 70 35
 0 4 T24 0 0 4 20 1 437 437 13 37 29 0 24 0 438 0 0 439 0 51 38 28 0 438 440 0 0
 -0 .2095 0 0 -1 0 .02 0 0 -1 31 39 23 0 42 441 0 0 +0 0 0 0 1 0 0 0 1 .02 29 40
 55 0 43 442 0 0 .2095 -.02 19 41 7 0 24 439 0 443 V0 16 42 18 0 ?444 0 445 39 0
 0 24 18 43 53 0 446 0 447 40 ?24 17 446 0 448 449 449 43 450 451 0 452 -18 447
 74 0 449 43 0 442 ?24 17 449 0 448 446 446 447 452 445 0 450 -29 442 101 0 447
 0 40 0 .2095 .02 15 448 61 0 449 438 0 17 452 0 453 450 450 43 449 445 0 0 +16
 445 69 0 ?452 42 451 441 0 0 24 17 450 0 453 452 452 447 446 451 0 0 +15 453 80
 0 450 454 0 16 451 68 0 ?450 445 455 456 0 0 24 16 455 70 0 ?457 451 458 459 0
 0 24 32 456 97 0 451 460 441 0 -0 .2095 0 .707106781186548 -.707106781186548 0
 -.707106781186548 -.707106781186548 0 .0282842712474619 .02 31 460 98 0 458 459
 456 0 +-.03 .2095 0 1 0 0 0 0 -1 .02 32 441 96 0 445 456 39 0 -0 .2095 0 -.7071
06781186548 -.707106781186548 0 .707106781186548 -.707106781186548 0 .0282842712
474619 .02 16 458 65 0 ?461 455 0 460 0 0 24 31 459 99 0 455 0 460 0 +.03 .2095
 0 1 0 0 0 0 -1 .02 17 461 0 462 461 461 0 463 458 0 0 +15 462 79 0 461 454 453
 17 463 0 464 463 463 0 461 458 0 0 -15 464 90 0 463 465 0 14 465 88 466 ?0 467
 464 37 468 -0 0 0 467 443 81 1 466 156 118 465 469 0 470 0 471 14 467 85 470 ?4
65 454 472 37 473 +0 0 465 454 443 50 468 94 0 465 473 474 0 +-.03 .2095 0 1 0 0
 0 0 -1 13 443 8 0 0 0 0 0 0 41 438 14 438 62 475 ?476 0 477 37 38 -0 0 476 0 44
3 81 1 475 152 118 438 478 0 0 479 480 14 476 16 479 ?454 438 481 37 440 -0 0 45
4 438 443 15 477 26 0 444 438 448 17 444 0 477 444 444 0 482 42 0 0 +17 482 0 48
1 482 482 0 444 42 0 0 -15 481 17 0 482 476 0 81 1 479 153 118 476 483 0 475 484
 485 14 454 75 484 ?467 476 486 37 474 -0 0 467 476 443 50 440 22 0 476 474 38 0
 +0 0 0 0 1 0 0 0 1 51 474 93 0 454 468 440 0 -.03 .2095 0 -1 0 0 .02 0 0 1 81 1
 484 154 118 454 487 0 479 470 488 15 486 78 0 489 454 462 17 489 0 486 489 489
 0 457 455 0 0 -17 457 0 472 457 457 0 489 455 0 0 +15 472 87 0 457 467 0 81 1 4
87 150 128 454 0 484 483 0 490 81 1 470 155 118 467 491 0 484 466 492 83 3 488 .
792156862745098 .819607843137255 .933333333333333 81 1 491 144 128 467 0 470 469
 478 493 83 3 492 .792156862745098 .819607843137255 .933333333333333 81 1 469 14
2 128 465 0 466 0 491 494 81 1 478 146 128 438 0 475 491 483 495 82 1 493 -62331
2778 81 1 483 148 128 476 0 479 478 487 496 82 1 495 -617086858 82 1 496 -637271
948 82 1 494 -621608842 82 1 490 -617938826 83 3 485 .792156862745098 .819607843
137255 .933333333333333 83 3 480 .792156862745098 .819607843137255 .933333333333
333 50 473 95 0 467 0 468 0 +.03 .2095 0 1 0 0 0 0 -1 83 3 471 .792156862745098
 .819607843137255 .933333333333333 19 439 30 0 24 0 41 37 S0 74 20 437 4 0 0 487
 435 466 34 0 0 0 0 0 0 0 0 0 0 0 0 0 0 0 0 81 2 435 121 136 24 0 34 0 0 497 0 8
3 1 497 1 84 7 436 model_581 1 22 245 5 12 498 0 0 0 499 70 23 0 4 T12 0 0 4 20
 1 500 500 13 25 29 0 12 0 501 0 0 502 0 51 26 28 0 503 504 0 0 -0 .02 0 0 -1 0
 .02 0 0 -1 31 27 23 0 505 506 0 0 +0 0 0 0 1 0 0 0 1 .02 29 28 57 0 31 507 0 .0
17 .02 -.0025 19 29 7 0 12 502 0 508 V0 16 30 4 0 ?509 0 505 506 0 0 12 18 31 55
 0 510 0 511 28 ?12 17 510 0 512 513 514 31 515 516 0 517 +18 511 107 0 518 31 5
19 520 ?12 17 518 0 521 522 523 511 514 524 0 525 +18 519 106 0 523 511 526 527
 ?12 29 520 155 0 511 527 528 .012 .04 -.0025 29 527 156 0 519 529 520 .017 .04
 -.0025 29 528 154 0 530 520 531 .012 .02 .0025 18 530 108 0 532 533 0 528 ?12 2
9 531 153 0 533 528 507 .017 .02 .0025 18 533 101 0 534 535 530 531 ?12 29 507 1
51 0 535 531 28 .012 .02 -.0025 18 535 104 0 513 536 533 507 ?12 17 513 0 512 52
5 510 535 537 538 0 539 +18 536 102 0 540 526 535 541 ?12 17 540 0 542 532 543 5
36 544 545 0 522 -18 526 105 0 544 519 536 529 ?12 29 541 158 0 536 0 529 .012 .
04 .0025 29 529 157 0 526 541 527 .017 .04 .0025 17 544 0 521 523 522 526 540 54
5 0 543 +15 521 127 0 522 546 0 17 523 0 521 518 544 519 547 548 0 515 +17 522 0
 521 544 518 536 549 550 0 551 +16 545 92 0 ?544 548 550 552 0 0 12 17 543 0 542
 540 534 526 553 554 0 547 -15 542 116 0 534 555 0 17 534 0 542 543 532 533 556
 557 0 553 +17 553 0 558 517 547 533 543 554 0 559 +16 554 84 0 ?553 560 516 561
 0 0 12 17 547 0 558 553 515 526 523 548 0 0 -15 558 120 0 517 562 0 17 515 0 55
8 547 517 519 510 516 0 514 -16 548 95 0 ?523 524 545 563 0 0 12 16 524 98 0 ?51
8 564 548 565 0 0 12 30 563 148 0 548 552 565 0 +.017 .04 .0025 0 0 -1 30 552 14
9 0 545 566 563 0 +.012 .04 .0025 1 0 0 30 565 147 0 524 563 567 0 +.012 .04 -.0
025 -1 0 0 30 567 146 0 568 565 569 0 +.012 .02 .0025 0 0 1 16 568 73 0 ?570 557
 0 567 0 0 12 30 569 145 0 557 567 571 0 +.012 .02 .0025 1 0 0 16 557 77 0 ?534
 572 568 569 0 0 12 30 571 144 0 572 569 573 0 +.017 .02 .0025 0 0 -1 16 572 81
 0 ?517 538 557 571 0 0 12 30 573 143 0 538 571 574 0 +.012 .02 -.0025 -1 0 0 16
 538 85 0 ?513 550 572 573 0 0 12 30 574 142 0 564 573 575 0 +.012 .04 -.0025 0
 -1 0 16 564 76 0 ?539 516 524 574 0 0 12 30 575 141 0 516 574 561 0 +.017 .04 -
.0025 0 -1 0 16 516 88 0 ?510 554 564 575 0 0 12 30 561 140 0 554 575 576 0 +.01
7 .04 .0025 0 -1 0 30 576 139 0 560 561 506 0 +.012 .04 .0025 0 -1 0 16 560 80 0
 ?532 505 554 576 0 0 12 31 506 5 0 30 576 27 0 +0 .02 0 0 1 0 0 0 1 .02 17 532
 0 542 534 540 530 551 560 0 570 +16 505 18 0 ?577 30 560 27 0 0 12 17 577 0 578
 577 577 0 579 505 0 0 +15 578 26 0 577 503 0 17 579 0 580 579 579 0 577 505 0 0
 -15 580 17 0 579 581 0 14 581 16 582 ?583 503 580 25 504 -0 0 583 503 508 81 1
 582 239 118 581 584 0 585 586 587 14 583 109 586 ?555 581 588 25 589 -0 0 555 5
81 508 14 503 25 585 ?581 501 590 25 26 -0 0 581 501 508 50 504 22 0 581 591 26
 0 +0 0 0 0 1 0 0 0 1 13 508 8 0 0 0 0 0 0 29 501 14 501 70 592 ?503 0 593 25 59
1 +0 0 503 0 508 81 1 592 237 118 501 594 0 0 585 595 15 593 3 0 509 501 596 50
 591 2 0 501 589 504 0 +0 .02 0 0 1 0 0 0 1 50 589 133 0 583 597 591 0 +.012 .04
 .0025 1 0 0 0 0 -1 50 597 134 0 555 598 589 0 +.012 .04 .0025 0 0 -1 -1 0 0 14
 555 113 599 ?562 583 542 25 597 -0 0 562 583 508 50 598 135 0 562 600 597 0 +.0
17 .04 .0025 -1 0 0 0 0 1 14 562 117 601 ?602 555 558 25 598 -0 0 602 555 508 50
 600 136 0 602 603 598 0 +.012 .04 -.0025 0 0 1 1 0 0 14 602 121 604 ?546 562 51
2 25 600 -0 0 546 562 508 50 603 138 0 546 0 600 0 +0 .04 0 0 -1 0 0 0 -1 14 546
 125 605 ?0 602 521 25 603 -0 0 0 602 508 81 1 605 244 118 546 606 0 604 0 607 8
1 1 606 235 128 546 0 605 608 0 609 81 1 604 243 118 602 608 0 601 605 610 83 3
 607 .792156862745098 .819607843137255 .933333333333333 81 1 608 233 128 602 0 6
04 611 606 612 81 1 601 242 118 562 611 0 599 604 613 83 3 610 .792156862745098
 .819607843137255 .933333333333333 81 1 611 231 128 562 0 601 614 608 615 81 1 5
99 241 118 555 614 0 586 601 616 83 3 613 .792156862745098 .819607843137255 .933
333333333333 81 1 614 229 128 555 0 599 594 611 617 81 1 586 240 118 583 618 0 5
82 599 619 83 3 616 .792156862745098 .819607843137255 .933333333333333 81 1 618
 223 128 583 0 586 584 620 621 83 3 619 .792156862745098 .819607843137255 .93333
3333333333 81 1 584 221 128 581 0 582 0 618 622 81 1 620 225 128 503 0 585 618 5
94 623 82 1 621 1982070902 81 1 585 238 118 503 620 0 592 582 624 81 1 594 227 1
28 501 0 592 620 614 625 82 1 623 -1077542808 82 1 625 1986855030 83 3 624 .7921
56862745098 .819607843137255 .933333333333333 82 1 622 -1077804952 82 1 617 1981
808758 82 1 615 1981546614 82 1 612 1981284470 82 1 609 1974730870 15 512 124 0
 513 602 0 17 509 0 593 509 509 0 626 30 0 0 +15 596 53 0 556 501 0 17 556 0 596
 627 559 530 534 557 0 0 -17 627 0 596 537 556 535 570 568 0 0 -17 559 0 596 556
 537 533 517 572 0 0 -17 537 0 596 559 627 31 513 538 0 0 -17 517 0 558 515 553
 31 559 572 0 537 +17 570 0 588 551 539 530 627 568 0 556 +15 588 112 0 570 583
 0 17 551 0 588 549 570 536 532 560 0 0 -17 539 0 588 570 549 535 525 564 0 627
 +17 549 0 588 539 551 511 522 550 0 0 -17 525 0 512 514 513 511 539 564 0 549 -
17 514 0 512 510 525 519 518 524 0 0 -16 550 89 0 ?522 545 538 566 0 0 12 30 566
 150 0 550 0 552 0 +.012 .04 .0025 0 0 1 17 626 0 590 626 626 0 509 30 0 0 -15 5
90 24 0 626 503 578 83 3 595 .792156862745098 .819607843137255 .933333333333333
 83 3 587 .792156862745098 .819607843137255 .933333333333333 19 502 30 0 12 0 29
 25 S0 74 20 500 4 0 0 606 498 605 22 0 0 0 0 0 0 0 0 0 0 0 0 0 0 0 0 81 2 498 1
85 136 12 0 22 0 0 628 0 83 1 628 1 84 7 499 model_781 1 10 157 5 7 629 0 0 0 63
0 70 11 0 4 T7 0 0 4 20 1 631 631 13 13 29 0 7 0 632 0 0 633 0 51 14 28 0 632 63
4 0 0 -0 .1 0 0 -1 0 .02 0 0 -1 31 15 5 0 18 635 0 0 +0 .1 0 0 1 0 0 0 1 .02 29
 16 56 0 19 636 0 0 0 -.02 19 17 7 0 7 633 0 637 V0 16 18 4 0 ?638 0 639 15 0 0
 7 18 19 54 0 640 0 641 16 ?7 17 640 0 642 643 643 19 644 645 0 646 -18 641 75 0
 643 19 0 636 ?7 17 643 0 642 640 640 641 646 639 0 644 -29 636 102 0 641 0 16 0
 0 .02 15 642 62 0 643 632 0 17 646 0 647 644 644 19 643 639 0 0 +16 639 70 0 ?6
46 18 645 635 0 0 7 17 644 0 647 646 646 641 640 645 0 0 +15 647 81 0 644 648 0
 16 645 69 0 ?644 639 649 650 0 0 7 16 649 71 0 ?651 645 652 653 0 0 7 32 650 98
 0 645 654 635 0 +0 0 0 .707106781186548 -.707106781186548 0 -.707106781186548 -
.707106781186548 0 .0282842712474619 .02 31 654 99 0 652 653 650 0 +-.03 0 0 1 0
 0 0 0 -1 .02 32 635 97 0 639 650 15 0 +0 0 0 -.707106781186548 -.70710678118654
8 0 .707106781186548 -.707106781186548 0 .0282842712474619 .02 16 652 66 0 ?655
 649 0 654 0 0 7 31 653 100 0 649 0 654 0 +.03 0 0 1 0 0 0 0 -1 .02 17 655 0 656
 655 655 0 657 652 0 0 +15 656 80 0 655 648 647 17 657 0 658 657 657 0 655 652 0
 0 -15 658 91 0 657 659 0 14 659 89 660 ?0 661 658 13 662 -0 0 0 661 637 81 1 66
0 156 118 659 663 0 664 0 665 14 661 86 664 ?659 648 666 13 667 +0 0 659 648 637
 50 662 95 0 659 667 668 0 +-.03 0 0 1 0 0 0 0 -1 13 637 8 0 0 0 0 0 0 17 632 14
 632 63 669 ?670 0 671 13 14 -0 0 670 0 637 81 1 669 152 118 632 672 0 0 673 674
 14 670 1 673 ?648 632 675 13 634 +0 0 648 632 637 15 671 24 0 676 632 642 17 67
6 0 671 676 676 0 638 18 0 0 -17 638 0 675 638 638 0 676 18 0 0 +15 675 3 0 638
 670 0 81 1 673 153 118 670 677 0 669 678 679 14 648 76 678 ?661 670 680 13 668
 -0 0 661 670 637 50 634 2 0 670 668 14 0 +0 .1 0 0 1 0 0 0 1 51 668 94 0 648 66
2 634 0 -.03 0 0 -1 0 0 .02 0 0 1 81 1 678 154 118 648 681 0 673 664 682 15 680
 79 0 683 648 656 17 683 0 680 683 683 0 651 649 0 0 -17 651 0 666 651 651 0 683
 649 0 0 +15 666 88 0 651 661 0 81 1 681 150 128 648 0 678 677 0 684 81 1 664 15
5 118 661 685 0 678 660 686 83 3 682 .792156862745098 .819607843137255 .93333333
3333333 81 1 685 144 128 661 0 664 663 672 687 83 3 686 .792156862745098 .819607
843137255 .933333333333333 81 1 663 142 128 659 0 660 0 685 688 81 1 672 146 128
 632 0 669 685 677 689 82 1 687 758775919 81 1 677 148 128 670 0 673 672 681 690
 82 1 689 765001839 82 1 690 -1930231704 82 1 688 760479855 82 1 684 764149871 8
3 3 679 .792156862745098 .819607843137255 .933333333333333 83 3 674 .79215686274
5098 .819607843137255 .933333333333333 50 667 96 0 661 0 662 0 +.03 0 0 1 0 0 0
 0 -1 83 3 665 .792156862745098 .819607843137255 .933333333333333 19 633 30 0 7
 0 17 13 S0 74 20 631 4 0 0 681 629 660 10 0 0 0 0 0 0 0 0 0 0 0 0 0 0 0 0 81 2
 629 121 136 7 0 10 0 0 691 0 83 1 691 1 84 7 630 model_674 20 6 1 0 0 2 0 0 0 0
 0 0 0 0 0 0 0 0 0 0 0 0 0 0 0 1 0 
